<svg width="32" height="32" viewBox="0 0 100 100" fill="none" xmlns="http://www.w3.org/2000/svg">
<defs>
    <linearGradient id="new-logo-gradient" x1="0%" y1="0%" x2="100%" y2="100%">
        <stop offset="0%" stop-color="#4ADE80" />
        <stop offset="100%" stop-color="#3B82F6" />
    </linearGradient>
</defs>
<path d="M62.5 25C56.875 25 52.0417 29.1667 51.0833 34.5833C49.4583 34.0417 47.6667 33.75 45.8333 33.75C38.2083 33.75 31.9167 39.2083 31.25 46.6667C31.25 46.6667 31.25 46.7083 31.25 46.75C22.75 47.3333 16.6667 54.5 16.6667 62.9167C16.6667 71.7917 23.7083 79.1667 32.5 79.1667H68.75C77.5417 79.1667 84.5833 72.2083 84.5833 63.3333C84.5833 55.25 78.5833 48.5833 70.8333 47.75C70.25 35.5833 62.5 25 62.5 25Z" fill="url(#new-logo-gradient)"/>
</svg>

