<svg width="120" height="120" viewBox="0 0 100 100" xmlns="http://www.w3.org/2000/svg" role="img" aria-label="CloudWise Logo Mark">
  <defs>
    <linearGradient id="cwGrad" x1="0%" y1="0%" x2="100%" y2="100%">
      <stop offset="0%" stop-color="#3B82F6" />
      <stop offset="40%" stop-color="#2563EB" />
      <stop offset="100%" stop-color="#059669" />
    </linearGradient>
  </defs>
  <path d="M62.5 25c-5.625 0-10.458 4.167-11.417 9.583A19.54 19.54 0 0 0 45.833 33.75c-7.625 0-13.917 5.458-14.583 12.917v.083C22.75 47.333 16.667 54.5 16.667 62.917 16.667 71.792 23.708 79.167 32.5 79.167H68.75c8.792 0 15.833-6.959 15.833-15.834 0-8.083-6-14.75-13.75-15.583C70.25 35.583 62.5 25 62.5 25Z" fill="url(#cwGrad)"/>
  <g fill="#FFFFFF" fill-opacity="0.92">
    <rect x="39" y="54" width="9" height="16" rx="2" />
    <rect x="52" y="46" width="9" height="24" rx="2" />
    <rect x="65" y="60" width="9" height="11" rx="2" />
  </g>
</svg>
